<svg width="144" height="144" viewBox="0 0 144 144" fill="none" xmlns="http://www.w3.org/2000/svg">
<path d="M71.5 132.5C106.5 134 118.5 109 118.5 109" stroke="#E15B64" stroke-width="16" stroke-linecap="round"/>
<path d="M25.5 106C33.6263 122.421 45.7469 130.931 71.5 132.5" stroke="#E15B64" stroke-width="16" stroke-linecap="round"/>
<path d="M33 80.5C26.8973 85.1679 21.6369 95.7893 25.5 106" stroke="#E15B64" stroke-width="16" stroke-linecap="round"/>
<path d="M52 34C50 35 29 48.5 33.4817 65.1338" stroke="#E15B64" stroke-width="16" stroke-linecap="round"/>
<path d="M33 80.5C37.5 76.5 34.5 68.5 33.5 65" stroke="#E15B64" stroke-width="16" stroke-linecap="round"/>
<path d="M118.5 109C122.5 100 122.306 87.12 114.566 77.5582" stroke="#E15B64" stroke-width="16" stroke-linecap="round"/>
<path d="M114.5 77.5C99 95.5 87.5 88.5 98.5 71.5" stroke="#E15B64" stroke-width="16" stroke-linecap="round"/>
<path d="M62.9999 8.5C112 19 106.209 58.0515 98.5 71.5" stroke="#E15B64" stroke-width="16" stroke-linecap="round"/>
<path d="M63.5 47.5C75 40 71 21.5 63 8.5" stroke="#E15B64" stroke-width="16" stroke-linecap="round"/>
<path d="M63.5 47.5C56.5 49.5 53 41 52 34" stroke="#E15B64" stroke-width="16" stroke-linecap="round"/>
</svg>
